<?xml version="1.0" encoding="UTF-8" standalone="no"?>
<svg
   width="24"
   height="24"
   viewBox="0 0 24 24"
   fill="none"
   version="1.1"
   id="svg906"
   xmlns="http://www.w3.org/2000/svg"
   xmlns:svg="http://www.w3.org/2000/svg">
  <defs
     id="defs904">
    <clipPath
       id="clip0_15_20">
      <rect
         width="15.3469"
         height="24"
         fill="white"
         transform="translate(4)"
         id="rect901" />
    </clipPath>
  </defs>
  <g
     clip-path="url(#clip0_15_20)"
     id="g899">
    <path
       d="M18.7048 3.38904V2.2031C18.7048 1.3406 18.0063 0.646851 17.1485 0.646851H6.20322C5.34072 0.646851 4.64697 1.34529 4.64697 2.2031V3.38904H18.7048ZM4.64697 18.675V21.7969C4.64697 22.6594 5.34541 23.3531 6.20322 23.3531H17.1438C18.0063 23.3531 18.7001 22.6547 18.7001 21.7969V18.675H4.64697Z"
       fill="#8CAEEC"
       id="path883" />
    <path
       d="M17.1437 0H6.20312C4.98906 0 4 0.989063 4 2.20312V21.7969C4 23.0109 4.98906 24 6.20312 24H17.1437C18.3578 24 19.3469 23.0109 19.3469 21.7969V16.5141C19.3469 16.1578 19.0563 15.8672 18.7 15.8719C18.3438 15.8719 18.0578 16.1625 18.0578 16.5141V18.0281H5.28906V4.03594H18.0578V12C18.0578 12.3562 18.3438 12.6469 18.7 12.6469C19.0563 12.6469 19.3469 12.3609 19.3469 12.0047V2.20312C19.3469 0.989063 18.3625 0 17.1437 0ZM18.0578 19.3172V21.7969C18.0578 22.3031 17.65 22.7109 17.1437 22.7109H6.20312C5.69687 22.7109 5.28906 22.3031 5.28906 21.7969V19.3172H18.0578ZM5.28906 2.74687V2.20312C5.28906 1.69687 5.69687 1.28906 6.20312 1.28906H17.1437C17.65 1.28906 18.0578 1.69687 18.0578 2.20312V2.74687H5.28906Z"
       fill="#36496D"
       id="path885" />
    <path
       d="M11.6735 21.4547C11.9169 21.4547 12.1142 21.2574 12.1142 21.0141C12.1142 20.7707 11.9169 20.5734 11.6735 20.5734C11.4302 20.5734 11.2329 20.7707 11.2329 21.0141C11.2329 21.2574 11.4302 21.4547 11.6735 21.4547Z"
       fill="#36496D"
       id="path887" />
    <g
       style="fill:none"
       id="g1151"
       transform="matrix(0.66824466,0,0,0.66824466,5.2594066,4.0528492)">
      <path
         d="m 5.7935016,2.8373827 c 0.65508,-0.50951 1.51454,-0.79282 2.36947,-0.79282 0.49793,0 0.89726,0.17025 1.19937,0.4388 0.11763,0.10455 0.21683,0.2206 0.30063,0.34129 0.0838,-0.12069 0.183,-0.23674 0.3006,-0.34129 0.3021004,-0.26855 0.7015004,-0.4388 1.1994004,-0.4388 0.8549,0 1.7144,0.28331 2.3695,0.79282 0.525,0.40834 0.9296,0.97313 1.0736,1.65577 0.328,0.02563 0.6276,0.16181 0.8796,0.36616 0.3825,0.31011 0.6599,0.7749 0.8357,1.26708 0.2732,0.76497 0.348,1.73951 0.0632,2.57072 0.0729,0.03376 0.1436,0.07333 0.212,0.11892 0.2754,0.18358 0.484,0.44561 0.6386,0.75492 0.3023,0.6045103 0.4278,1.4481103 0.4278,2.4736103 0,1.1413 -0.4353,1.9067 -0.9871,2.3796 -0.345,0.2958 -0.7274,0.4699 -1.0542,0.5551 -0.0999,0.5581 -0.3796,1.2043 -0.8183,1.7526 -0.5714,0.7143 -1.4545,1.3127 -2.6404,1.3127 -0.9409,0 -1.6878,-0.5203 -2.1742004,-1.0298 -0.1213,-0.1271 -0.2302,-0.2573 -0.3258,-0.3849 -0.09558,0.1276 -0.20449,0.2578 -0.32582,0.3849 -0.48633,0.5095 -1.23327,1.0298 -2.17418,1.0298 -1.18587,0 -2.06903,-0.5984 -2.64043,-1.3127 -0.43865,-0.5483 -0.71834,-1.1945 -0.81831,-1.7526 -0.32672,-0.0852 -0.70912,-0.2593 -1.05416,-0.5551 -0.55178,-0.4729 -0.9871,-1.2383 -0.9871,-2.3796 0,-1.0255 0.12555,-1.8691 0.42779,-2.4736103 0.15465,-0.30931 0.36324,-0.57134 0.63861,-0.75492 0.06839,-0.04559 0.13915,-0.08516 0.21197,-0.11892 -0.28473,-0.83121 -0.20994,-1.80575 0.06326,-2.57072 0.17578,-0.49218 0.45319,-0.95697 0.83566,-1.26708 0.25202,-0.20435 0.55159,-0.34053 0.87963,-0.36616 0.14393,-0.68264 0.5486,-1.24743 1.07361,-1.65577 z m 3.36947,1.70781 -2.1e-4,-0.01059 c -2.6e-4,-0.01023 -8.1e-4,-0.02695 -0.002,-0.04923 -0.0024,-0.0447 -0.00732,-0.11092 -0.01737,-0.19129 -0.02041,-0.16334 -0.06043,-0.37221 -0.13608,-0.57396 -0.07644,-0.20382 -0.17925,-0.37372 -0.30933,-0.48936 -0.11977,-0.10645 -0.28294,-0.1862 -0.53501,-0.1862 -0.64507,0 -1.28561,0.21669 -1.75553,0.58218 -0.4645,0.36127 -0.74447,0.84994 -0.74447,1.41782 0,0.16072 -0.07726,0.31165 -0.20764,0.40562 -0.13039,0.09398 -0.298,0.11955 -0.45047,0.06872 -0.18759,-0.06253 -0.35615,-0.02769 -0.5348,0.11716 -0.19566,0.15864 -0.387,0.44385 -0.52372,0.82667 -0.2793,0.78205 -0.25129,1.72856 0.13266,2.30448 0.05576,0.08365 0.08396,0.18033 0.08397,0.27732 h 0.75 c 1.24264,0 2.25,1.0073303 2.25,2.2500303 v 0.3354 c 0.5826,0.2059 1,0.7615 1,1.4146 0,0.8284 -0.67157,1.5 -1.5,1.5 -0.82843,0 -1.5,-0.6716 -1.5,-1.5 0,-0.6531 0.4174,-1.2087 1,-1.4146 v -0.3354 c 0,-0.6904 -0.55964,-1.25003 -1.25,-1.25003 h -1.75 c -0.06163,0 -0.12066,-0.01115 -0.17518,-0.03155 -8.7e-4,0.0017 -0.00174,0.0034 -0.00261,0.0052 -0.19776,0.39549 -0.32221,1.05189 -0.32221,2.02639 0,0.8587 0.31468,1.3433 0.6379,1.6204 0.34709,0.2975 0.73173,0.3796 0.8621,0.3796 0.27614,0 0.5,0.2239 0.5,0.5 0,0.3684 0.19917,1.0111 0.64043,1.5627 0.4286,0.5357 1.04544,0.9373 1.85957,0.9373 0.55909,0 1.06215,-0.3131 1.45082,-0.7202 0.19033,-0.1994 0.33847,-0.4068 0.4364,-0.5765 0.04906,-0.0851 0.08202,-0.1546 0.10117,-0.2036 0.00561,-0.0144 0.00928,-0.025 0.01161,-0.0323 V 7.5445627 h -1.08535 c -0.20592,0.5826 -0.76154,1 -1.41465,1 -0.82843,0 -1.5,-0.67157 -1.5,-1.5 0,-0.82843 0.67157,-1.5 1.5,-1.5 0.65311,0 1.20873,0.4174 1.41465,1 h 1.08535 z m 1.0000004,9.9993703 v 0.9674 c 0.0023,0.0073 0.006,0.0179 0.0116,0.0323 0.0192,0.049 0.0521,0.1185 0.1012,0.2036 0.0979,0.1697 0.2461,0.3771 0.4364,0.5765 0.3886,0.4071 0.8917,0.7202 1.4508,0.7202 0.8141,0 1.431,-0.4016 1.8596,-0.9373 0.4412,-0.5516 0.6404,-1.1943 0.6404,-1.5627 0,-0.2761 0.2239,-0.5 0.5,-0.5 0.1304,0 0.515,-0.0821 0.8621,-0.3796 0.3232,-0.2771 0.6379,-0.7617 0.6379,-1.6204 0,-0.9745 -0.1245,-1.6309 -0.3222,-2.02639 -0.0954,-0.1906903 -0.1993,-0.3036603 -0.2989,-0.3700803 -0.0965,-0.06434 -0.2164,-0.10353 -0.3789,-0.10353 -0.1844,0 -0.3538,-0.10149 -0.4408,-0.26407 -0.087,-0.16258 -0.0775,-0.35985 0.0248,-0.51328 0.3839,-0.57592 0.4119,-1.52243 0.1326,-2.30448 -0.1367,-0.38282 -0.328,-0.66803 -0.5237,-0.82667 -0.1786,-0.14485 -0.3472,-0.17969 -0.5348,-0.11716 -0.1525,0.05083 -0.3201,0.02526 -0.4505,-0.06872 -0.1303,-0.09397 -0.2076,-0.2449 -0.2076,-0.40562 0,-0.56788 -0.28,-1.05655 -0.7445,-1.41782 -0.4699,-0.36549 -1.1104,-0.58218 -1.7555,-0.58218 -0.2521,0 -0.4152,0.07975 -0.535,0.1862 -0.1301,0.11564 -0.2329,0.28554 -0.3093,0.48936 -0.0757,0.20175 -0.1157,0.41062 -0.1361,0.57396 -0.0101,0.08037 -0.015,0.14659 -0.0174,0.19129 -0.0012,0.02228 -0.0017,0.039 -0.002,0.04923 l -2e-4,0.01115 v 8.9988103 h 0.75 c 0.6904,0 1.25,-0.5596 1.25,-1.25 v -1.8354 c -0.5826,-0.2059 -1,-0.7614903 -1,-1.4146003 0,-0.82843 0.6716,-1.5 1.5,-1.5 0.8284,0 1.5,0.67157 1.5,1.5 0,0.65311 -0.4174,1.2087003 -1,1.4146003 v 1.8354 c 0,1.2426 -1.0074,2.25 -2.25,2.25 z M 6.1629716,7.0445627 c 0,0.27614 0.22386,0.5 0.5,0.5 0.27614,0 0.5,-0.22386 0.5,-0.5 0,-0.27614 -0.22386,-0.5 -0.5,-0.5 -0.27614,0 -0.5,0.22386 -0.5,0.5 z m 6.5000004,2.5 c 0.2761,0 0.5,-0.22386 0.5,-0.5 0,-0.27614 -0.2239,-0.5 -0.5,-0.5 -0.2761,0 -0.5,0.22386 -0.5,0.5 0,0.27614 0.2239,0.5 0.5,0.5 z M 6.6629716,12.544563 c -0.27614,0 -0.5,0.2239 -0.5,0.5 0,0.2761 0.22386,0.5 0.5,0.5 0.27614,0 0.5,-0.2239 0.5,-0.5 0,-0.2761 -0.22386,-0.5 -0.5,-0.5 z"
         fill="#36496d"
         id="path1142" />
    </g>
  </g>
</svg>
