<?xml version="1.0" encoding="UTF-8" standalone="no"?>
<svg
   width="38.369236mm"
   height="8.4771996mm"
   viewBox="0 0 38.369236 8.4771996"
   version="1.1"
   xmlns="http://www.w3.org/2000/svg"
   xmlns:svg="http://www.w3.org/2000/svg">
  <g
     transform="translate(-45.754131,-116.20472)">
    <g
       aria-label="Adriano"
       style="font-size:10.5833px;line-height:1.25;stroke-width:0.264583">
      <path
         d="m 55.047597,120.77664 q 0.01058,-0.0318 0.05292,-0.0423 0.04233,-0.0212 0.07408,0.0106 0.03175,0.0318 0.02117,0.13758 -0.01058,0.0953 -0.08467,0.28575 -0.03175,0.0741 -0.137583,0.35983 -0.105833,0.28575 -0.275166,0.67733 -0.158749,0.39158 -0.391582,0.8255 -0.222249,0.43391 -0.486832,0.80433 -0.253999,0.35983 -0.550331,0.59266 -0.296332,0.24342 -0.613831,0.24342 -0.28575,0 -0.423332,-0.254 -0.127,-0.254 -0.15875,-0.635 -0.03175,-0.39158 0.01058,-0.84666 0.05292,-0.45508 0.127,-0.85725 0.08467,-0.40216 0.158749,-0.68791 0.08467,-0.28575 0.127,-0.33867 -0.380999,0.0529 -1.174746,0.127 -0.793748,0.0741 -1.873244,0.0953 -0.529165,0.66675 -1.015997,1.28058 -0.476249,0.61383 -0.910164,1.09008 -0.423332,0.46567 -0.793747,0.75141 -0.359832,0.27517 -0.645582,0.27517 -0.232832,0 -0.296332,-0.0741 -0.05292,-0.0635 -0.02117,-0.14817 0.04233,-0.0741 0.148167,-0.13758 0.105833,-0.0741 0.201082,-0.0741 0.201083,0 0.497415,-0.23283 0.306916,-0.24341 0.677332,-0.64558 0.380998,-0.41275 0.814914,-0.9525 0.433915,-0.53974 0.910163,-1.14299 -0.08467,-0.0318 -0.04233,-0.127 0.04233,-0.0953 0.148166,-0.21167 0.116417,-0.127 0.254,-0.24341 0.148166,-0.127 0.253999,-0.1905 0.624415,-0.78317 1.269996,-1.54516 0.656164,-0.77259 1.301746,-1.37583 0.645581,-0.61384 1.248829,-0.98425 0.603248,-0.381 1.132413,-0.381 0.211666,0 0.370416,0.15875 0.158749,0.15875 0.126999,0.37042 0.03175,-0.17992 -0.09525,0.0423 -0.116416,0.22225 -0.328082,0.71966 -0.201083,0.49742 -0.476248,1.18533 -0.264583,0.68792 -0.529165,1.43933 -0.254,0.75142 -0.476249,1.49225 -0.211666,0.73024 -0.328082,1.32291 -0.105833,0.58208 -0.08467,0.94191 0.03175,0.35983 0.264582,0.35983 0.137583,0 0.306916,-0.19049 0.179916,-0.20109 0.370415,-0.508 0.1905,-0.3175 0.380999,-0.6985 0.201083,-0.39158 0.380999,-0.77258 0.179916,-0.39158 0.328082,-0.73025 0.148166,-0.33866 0.253999,-0.56091 z m -5.1964,-0.0106 q 0.03175,0.0952 0.201083,0.127 0.179916,0.0318 0.433915,0.0318 0.264583,0 0.571498,-0.0318 0.306916,-0.0423 0.603248,-0.0847 0.296333,-0.0423 0.550332,-0.0847 0.253999,-0.0529 0.412749,-0.0847 0.169332,-0.51858 0.359832,-1.03716 0.190499,-0.52917 0.380999,-1.016 0.190499,-0.48683 0.370415,-0.91016 0.190499,-0.43392 0.349249,-0.75142 -0.550332,0.21167 -1.100663,0.61384 -0.539748,0.39158 -1.079497,0.91016 -0.529165,0.508 -1.047746,1.11125 -0.518582,0.59266 -1.005414,1.20649 z"
         style="font-family:'Nadhine Script';-inkscape-font-specification:'Nadhine Script';fill:#ffffff" />
      <path
         d="m 59.079818,120.74489 q -0.05292,0.0847 -0.15875,0.38099 -0.105833,0.29634 -0.201082,0.68792 -0.09525,0.381 -0.15875,0.81491 -0.0635,0.42334 -0.04233,0.78317 0.02117,0.35983 0.158749,0.59266 0.137583,0.23283 0.433916,0.23283 0.211666,0 0.433915,-0.19049 0.232833,-0.20109 0.455082,-0.508 0.222249,-0.3175 0.433915,-0.6985 0.211666,-0.39158 0.402166,-0.77258 0.190499,-0.39158 0.338665,-0.73025 0.15875,-0.33866 0.264583,-0.56091 0.01058,-0.0318 0.05292,-0.0423 0.04233,-0.0212 0.07408,0.0106 0.03175,0.0318 0.02117,0.13758 -0.01058,0.0953 -0.08467,0.28575 -0.03175,0.0741 -0.148166,0.35983 -0.116416,0.28575 -0.306915,0.67733 -0.179917,0.39158 -0.433916,0.8255 -0.243416,0.43391 -0.539748,0.80433 -0.296332,0.35983 -0.634998,0.59266 -0.338666,0.24342 -0.698498,0.24342 -0.349249,0 -0.560915,-0.24342 -0.211666,-0.23283 -0.306915,-0.53974 -0.09525,-0.3175 -0.105833,-0.62442 -0.01058,-0.30691 0.03175,-0.45508 -0.529165,0.67733 -1.111247,1.05833 -0.571498,0.37041 -1.185329,0.37041 -0.582082,0 -0.878414,-0.34924 -0.296333,-0.34925 -0.338666,-0.86783 -0.03175,-0.52917 0.15875,-1.13242 0.201082,-0.61383 0.603248,-1.13241 0.412748,-0.52917 1.005413,-0.87841 0.603248,-0.34925 1.365246,-0.34925 0.285749,0 0.465665,0.0952 0.179916,0.0847 0.285749,0.22225 0.105833,0.13758 0.148166,0.29633 0.05292,0.15875 0.07408,0.28575 0.264583,-0.79375 0.560915,-1.54516 0.296333,-0.762 0.560915,-1.34408 0.264583,-0.59267 0.476249,-0.9525 0.211666,-0.35983 0.306915,-0.35983 0.08467,-0.0212 0.201083,0.0106 0.116416,0.0212 0.222249,0.0847 0.105833,0.0635 0.1905,0.17991 0.08467,0.10584 0.116416,0.26459 0.01058,0.17991 -0.03175,0.53974 -0.03175,0.35984 -0.232833,0.87842 -0.190499,0.508 -0.592664,1.16416 -0.391582,0.64558 -1.09008,1.397 z m 1.523995,-3.52424 q -0.09525,0.22225 -0.232833,0.52916 -0.137583,0.29633 -0.296332,0.65617 -0.15875,0.35983 -0.338666,0.77258 -0.179916,0.40216 -0.349249,0.8255 0.264583,-0.34925 0.486832,-0.70909 0.22225,-0.37041 0.380999,-0.73024 0.169333,-0.35984 0.253999,-0.6985 0.09525,-0.33867 0.09525,-0.64558 z m -4.794235,6.63573 q 0.338666,0 0.645581,-0.17992 0.317499,-0.1905 0.582082,-0.45508 0.275166,-0.26458 0.476248,-0.56092 0.211666,-0.29633 0.349249,-0.51858 0.05292,-0.20108 0.105833,-0.39158 0.0635,-0.20108 0.127,-0.41275 0.0635,-0.27516 0.0635,-0.52916 0.01058,-0.254 -0.05292,-0.45509 -0.0635,-0.20108 -0.201082,-0.31749 -0.137583,-0.11642 -0.349249,-0.11642 -0.497415,0 -0.888998,0.29633 -0.380998,0.28575 -0.656164,0.73025 -0.275166,0.43391 -0.433915,0.94191 -0.148167,0.508 -0.179916,0.9525 -0.02117,0.43391 0.07408,0.73025 0.105833,0.28575 0.338665,0.28575 z"
         style="font-family:'Nadhine Script';-inkscape-font-specification:'Nadhine Script';fill:#ffffff" />
      <path
         d="m 65.906027,120.77664 q 0.01058,-0.0318 0.05292,-0.0423 0.04233,-0.0212 0.07408,0.0106 0.03175,0.0318 0.02117,0.13758 -0.01058,0.0953 -0.08467,0.28575 -0.02117,0.0635 -0.169333,0.34925 -0.137583,0.27516 -0.370415,0.66674 -0.22225,0.39159 -0.507999,0.83609 -0.285749,0.43391 -0.603248,0.80433 -0.306916,0.37041 -0.634998,0.61383 -0.317499,0.24341 -0.613831,0.24341 -0.507999,0 -0.751415,-0.16933 -0.243415,-0.15875 -0.285749,-0.43391 -0.04233,-0.28575 0.0635,-0.65617 0.105833,-0.37041 0.275166,-0.762 0.179916,-0.40216 0.391582,-0.81491 0.211666,-0.41275 0.370416,-0.77258 0.158749,-0.35983 0.222249,-0.64558 0.07408,-0.29634 -0.02117,-0.45508 -0.09525,-0.16934 -0.412748,-0.17992 -0.306916,-0.0212 -0.910164,0.16933 -0.148166,0.34925 -0.296333,0.67733 -0.137583,0.3175 -0.222249,0.52917 -0.04233,0.10583 -0.105833,0.15875 -0.05292,0.0529 -0.105833,0.0529 -0.04233,-0.0106 -0.05292,-0.0741 -0.01058,-0.0635 0.05292,-0.1905 0.08467,-0.1905 0.232833,-0.52916 0.148166,-0.33867 0.285749,-0.70908 -0.370416,-0.0741 -0.486832,-0.34925 -0.105833,-0.27517 -0.0635,-0.58208 0.05292,-0.30692 0.222249,-0.55034 0.169333,-0.24341 0.380999,-0.24341 0.253999,0 0.359832,0.13758 0.116417,0.127 0.127,0.33867 0.02117,0.21166 -0.05292,0.49741 -0.0635,0.27517 -0.169333,0.5715 0.804331,-0.28575 1.280579,-0.32808 0.486832,-0.0529 0.719664,0.0741 0.232833,0.127 0.254,0.40217 0.03175,0.26458 -0.07408,0.62441 -0.105833,0.35983 -0.306915,0.78316 -0.201083,0.41275 -0.423332,0.83609 -0.211666,0.41274 -0.402166,0.80433 -0.190499,0.38099 -0.285749,0.67733 -0.09525,0.29633 -0.05292,0.48683 0.05292,0.17991 0.306916,0.17991 0.275165,0 0.571498,-0.21166 0.296332,-0.22225 0.571498,-0.55033 0.285749,-0.33867 0.550331,-0.74083 0.264583,-0.41275 0.476249,-0.79375 0.222249,-0.381 0.370415,-0.6985 0.15875,-0.3175 0.232833,-0.46566 z"
         style="font-family:'Nadhine Script';-inkscape-font-specification:'Nadhine Script';fill:#ffffff" />
      <path
         d="m 68.033259,120.77664 q 0.01058,-0.0318 0.05292,-0.0423 0.04233,-0.0212 0.07408,0.0106 0.03175,0.0318 0.02117,0.13758 -0.01058,0.0953 -0.08467,0.28575 -0.03175,0.0741 -0.148166,0.35983 -0.116416,0.28575 -0.296332,0.67733 -0.169333,0.39158 -0.402166,0.8255 -0.222249,0.43391 -0.486831,0.80433 -0.264583,0.35983 -0.550332,0.59266 -0.285749,0.24342 -0.571498,0.24342 -0.338666,0 -0.476249,-0.39158 -0.126999,-0.39158 -0.116416,-0.98425 0.02117,-0.59266 0.148166,-1.26999 0.127,-0.68792 0.296333,-1.28058 0.179916,-0.59267 0.370415,-0.98425 0.201083,-0.39158 0.349249,-0.39158 0.105833,0 0.232833,0.0741 0.137582,0.0741 0.253999,0.1905 0.116416,0.10583 0.179916,0.23283 0.07408,0.127 0.0635,0.23283 -0.01058,0.0741 -0.15875,0.41275 -0.137583,0.33867 -0.328082,0.80433 -0.1905,0.45509 -0.380999,0.97367 -0.179916,0.51858 -0.285749,0.95249 -0.09525,0.43392 -0.0635,0.71967 0.03175,0.28575 0.285749,0.28575 0.137583,0 0.306916,-0.1905 0.179916,-0.20108 0.370415,-0.508 0.1905,-0.3175 0.380999,-0.70908 0.1905,-0.39158 0.370416,-0.77258 0.179916,-0.39158 0.328082,-0.73025 0.158749,-0.33866 0.264582,-0.56091 z m -0.89958,-1.69333 q -0.211666,0 -0.370415,-0.15875 -0.148167,-0.16933 -0.148167,-0.39158 0,-0.23284 0.148167,-0.39159 0.158749,-0.15875 0.370415,-0.15875 0.211666,0 0.359832,0.15875 0.148166,0.15875 0.148166,0.39159 0,0.22225 -0.148166,0.39158 -0.148166,0.15875 -0.359832,0.15875 z"
         style="font-family:'Nadhine Script';-inkscape-font-specification:'Nadhine Script';fill:#ffffff" />
      <path
         d="m 73.695307,120.77664 q 0.01058,-0.0318 0.05292,-0.0423 0.04233,-0.0212 0.0635,0.0106 0.03175,0.0318 0.02117,0.13758 0,0.0953 -0.08467,0.28575 -0.03175,0.0741 -0.148166,0.35983 -0.105833,0.28575 -0.285749,0.67733 -0.169333,0.39158 -0.402166,0.8255 -0.222249,0.43391 -0.486832,0.80433 -0.264582,0.35983 -0.550331,0.59266 -0.285749,0.24342 -0.571498,0.24342 -0.22225,0 -0.359832,-0.16933 -0.127,-0.16934 -0.1905,-0.45508 -0.05292,-0.28575 -0.05292,-0.66675 0.01058,-0.381 0.0635,-0.79375 -0.179916,0.28575 -0.444498,0.58208 -0.264583,0.29633 -0.582082,0.53975 -0.306915,0.23283 -0.656164,0.39158 -0.338666,0.14817 -0.677331,0.14817 -0.582082,0 -0.878414,-0.34925 -0.296333,-0.34925 -0.338666,-0.86783 -0.03175,-0.52917 0.15875,-1.13241 0.201082,-0.61384 0.603248,-1.13242 0.412748,-0.52916 1.005413,-0.87841 0.603248,-0.34925 1.365246,-0.34925 0.264582,0 0.433915,0.0847 0.179916,0.0741 0.285749,0.20108 0.116417,0.11642 0.169333,0.26458 0.05292,0.14817 0.07408,0.27517 0.15875,-0.4445 0.317499,-0.71967 0.15875,-0.27516 0.275166,-0.27516 0.105833,0 0.232833,0.0741 0.137582,0.0741 0.253999,0.1905 0.116416,0.10583 0.179916,0.23283 0.07408,0.127 0.0635,0.23283 -0.01058,0.0741 -0.15875,0.41275 -0.137583,0.33867 -0.328082,0.80433 -0.1905,0.45509 -0.380999,0.97367 -0.179916,0.51858 -0.285749,0.95249 -0.09525,0.43392 -0.07408,0.71967 0.03175,0.28575 0.285749,0.28575 0.137583,0 0.306916,-0.1905 0.179916,-0.20108 0.370415,-0.508 0.190499,-0.3175 0.380999,-0.70908 0.201083,-0.39158 0.380999,-0.77258 0.179916,-0.39158 0.328082,-0.73025 0.158749,-0.33866 0.264582,-0.56091 z m -4.984734,3.07974 q 0.380999,0 0.719665,-0.22225 0.338665,-0.22225 0.624414,-0.51858 0.285749,-0.30692 0.486832,-0.62442 0.211666,-0.3175 0.317499,-0.508 0.01058,-0.0529 0.03175,-0.14816 0.02117,-0.10584 0.04233,-0.21167 0.03175,-0.10583 0.04233,-0.1905 0.02117,-0.0953 0.03175,-0.13758 0.05292,-0.26458 0.05292,-0.508 0,-0.254 -0.0635,-0.4445 -0.0635,-0.1905 -0.201083,-0.30691 -0.126999,-0.11642 -0.338665,-0.11642 -0.497415,0 -0.888997,0.29633 -0.380999,0.28575 -0.656165,0.73025 -0.275166,0.43391 -0.433915,0.94191 -0.148166,0.508 -0.179916,0.9525 -0.02117,0.43391 0.07408,0.73025 0.105833,0.28575 0.338665,0.28575 z"
         style="font-family:'Nadhine Script';-inkscape-font-specification:'Nadhine Script';fill:#ffffff" />
      <path
         d="m 78.986942,120.77664 q 0.01058,-0.0318 0.05292,-0.0423 0.04233,-0.0212 0.07408,0.0106 0.03175,0.0318 0.02117,0.13758 -0.01058,0.0953 -0.08467,0.28575 -0.03175,0.0741 -0.148166,0.35983 -0.105833,0.28575 -0.285749,0.67733 -0.179916,0.39158 -0.412749,0.8255 -0.222249,0.43391 -0.486831,0.80433 -0.254,0.35983 -0.550332,0.59266 -0.285749,0.24342 -0.571498,0.24342 -0.444499,0 -0.656165,-0.20108 -0.201082,-0.1905 -0.253999,-0.508 -0.05292,-0.32808 0.02117,-0.74083 0.08467,-0.41275 0.211666,-0.84667 0.126999,-0.43391 0.264582,-0.84666 0.137583,-0.41275 0.22225,-0.73025 0.08467,-0.32808 0.07408,-0.51858 -0.01058,-0.20108 -0.1905,-0.20108 -0.391582,0 -0.740831,0.22225 -0.338665,0.21166 -0.634998,0.56091 -0.296332,0.34925 -0.539748,0.78317 -0.243416,0.42333 -0.423332,0.85724 -0.179916,0.43392 -0.296332,0.8255 -0.116417,0.381 -0.148167,0.635 v 0.0106 q -0.01058,0.37042 -0.158749,0.52917 -0.148166,0.16933 -0.328082,0.16933 -0.148167,0 -0.1905,-0.254 -0.03175,-0.254 0.01058,-0.66675 0.04233,-0.41275 0.137582,-0.93133 0.105833,-0.52916 0.243416,-1.07949 0.148167,-0.56092 0.306916,-1.0795 0.169333,-0.52917 0.328082,-0.94191 0.15875,-0.41275 0.296333,-0.66675 0.148166,-0.254 0.253999,-0.254 0.105833,0 0.232832,0.0741 0.137583,0.0741 0.254,0.1905 0.116416,0.10583 0.179916,0.23283 0.07408,0.127 0.0635,0.23284 -0.02117,0.0952 -0.254,0.52916 -0.232832,0.42333 -0.529165,1.02658 0.22225,-0.3175 0.476249,-0.59266 0.264582,-0.28575 0.560915,-0.49742 0.296332,-0.22225 0.613831,-0.33866 0.317499,-0.127 0.666748,-0.127 0.465665,0 0.656165,0.20108 0.201082,0.20108 0.222249,0.53975 0.02117,0.32808 -0.105833,0.75141 -0.116416,0.42333 -0.285749,0.86783 -0.15875,0.43392 -0.317499,0.85725 -0.15875,0.42333 -0.232833,0.762 -0.07408,0.32808 -0.01058,0.52916 0.07408,0.20108 0.370415,0.20108 0.137583,0 0.306916,-0.19049 0.179916,-0.20109 0.370416,-0.508 0.190499,-0.3175 0.380998,-0.6985 0.201083,-0.39158 0.370416,-0.77258 0.179916,-0.39158 0.328082,-0.73025 0.15875,-0.33866 0.264583,-0.56091 z"
         style="font-family:'Nadhine Script';-inkscape-font-specification:'Nadhine Script';fill:#ffffff" />
      <path
         d="m 83.93992,120.85072 q 0.04233,-0.10583 0.08467,-0.11642 0.04233,-0.0212 0.0635,0.0106 0.03175,0.0318 0.03175,0.10583 0.01058,0.0635 -0.01058,0.13758 -0.0635,0.15875 -0.169333,0.4445 -0.105833,0.28575 -0.296333,0.56092 -0.190499,0.27516 -0.476248,0.47624 -0.285749,0.20109 -0.687915,0.20109 -0.116416,0 -0.211666,-0.0317 -0.148166,0.33866 -0.402165,0.66674 -0.243416,0.32809 -0.550332,0.58209 -0.296332,0.254 -0.634998,0.41274 -0.338665,0.14817 -0.687914,0.14817 -0.814914,0 -1.259413,-0.35983 -0.433915,-0.37042 -0.550331,-0.91016 -0.116417,-0.55034 0.05292,-1.18533 0.169333,-0.64559 0.571498,-1.18533 0.402166,-0.55034 1.005414,-0.91017 0.603248,-0.37041 1.354662,-0.37041 0.613832,0 0.973664,0.21166 0.359832,0.20109 0.518582,0.4445 0.169332,0.24342 0.169332,0.45508 0,0.20109 -0.105833,0.20109 -0.126999,0 -0.190499,-0.13759 -0.05292,-0.14816 -0.169333,-0.3175 -0.105833,-0.17991 -0.338665,-0.32808 -0.232833,-0.14816 -0.719665,-0.14816 -0.455082,0 -0.857247,0.30691 -0.402166,0.29633 -0.698498,0.762 -0.296332,0.45508 -0.455082,0.98425 -0.148166,0.52916 -0.105833,0.99483 0.05292,0.45508 0.328083,0.76199 0.275165,0.29634 0.846663,0.29634 0.1905,0 0.412749,-0.127 0.232833,-0.13759 0.455082,-0.34925 0.232833,-0.21167 0.433915,-0.47625 0.201083,-0.27517 0.338666,-0.56092 -0.201083,-0.17991 -0.296332,-0.46566 -0.08467,-0.28575 -0.0635,-0.56092 0.03175,-0.27516 0.169333,-0.47624 0.148166,-0.20109 0.402165,-0.20109 0.158749,0 0.243416,0.127 0.08467,0.127 0.09525,0.34925 0.02117,0.21167 -0.03175,0.49742 -0.04233,0.27516 -0.148167,0.58208 0.03175,0.0106 0.105833,0.0106 0.232833,0 0.433916,-0.0847 0.201082,-0.0847 0.370415,-0.26458 0.179916,-0.17991 0.338666,-0.46566 0.158749,-0.29634 0.317499,-0.6985 z m -1.777995,0.16933 q -0.09525,0 -0.169332,0.13758 -0.0635,0.13759 -0.08467,0.33867 -0.01058,0.1905 0.03175,0.40217 0.05292,0.20108 0.179916,0.32808 0.09525,-0.24342 0.148166,-0.45508 0.05292,-0.22225 0.05292,-0.39159 0.01058,-0.16933 -0.03175,-0.26458 -0.03175,-0.0953 -0.127,-0.0953 z"
         style="font-family:'Nadhine Script';-inkscape-font-specification:'Nadhine Script';fill:#ffffff" />
    </g>
  </g>
</svg>
