<?xml version="1.0" encoding="UTF-8" standalone="no"?>
<svg
   width="37.373318mm"
   height="37.373375mm"
   viewBox="0 0 37.373318 37.373374"
   version="1.1"
   id="svg1120"
   xmlns="http://www.w3.org/2000/svg"
   xmlns:svg="http://www.w3.org/2000/svg">
  <defs
     id="defs1117" />
  <g
     id="g3117"
     transform="translate(-117.8119,-114.08538)">
    <title>Python</title>
    <circle
       style="fill:#cccccc;fill-opacity:0.2;stroke:#393939;stroke-width:0.265;stroke-miterlimit:4;stroke-dasharray:1.06, 0.53, 0.265, 0.53;stroke-dashoffset:0;stroke-opacity:1"
       id="path13481-36"
       class="circle-frame"
       cx="136.49855"
       cy="132.77202"
       r="18.554167" />
    <g
       fill-rule="evenodd"
       clip-rule="evenodd"
       id="g1379"
       transform="matrix(0.39405267,0,0,0.39405267,110.75568,116.48559)">
      <path
         fill="#386f9f"
         d="m 51.834,23.017 c 3.756,0 7.512,0.058 11.263,-0.04 0.995,-0.026 2.78,0.797 2.7,-1.271 -0.061,-1.683 -1.622,-1.074 -2.568,-1.089 -4.237,-0.067 -8.488,-0.228 -12.708,0.037 -3.003,0.187 -3.888,-0.953 -3.511,-3.707 0.13,-0.95 0.005,-1.934 0.025,-2.902 0.132,-6.446 1.69,-8.64 7.942,-10.23 6.888,-1.75 13.937,-1.692 20.806,-0.184 6.175,1.356 8.74,6.16 8.428,10.604 -0.38,5.423 -0.086,10.893 -0.091,16.343 -0.009,6.853 -3.55,10.49 -10.459,10.585 -5.69,0.078 -11.387,0.14 -17.074,-0.018 -6.778,-0.19 -11.75,5.44 -11.784,11.82 0,0.484 0.083,0.984 -0.013,1.451 -0.488,2.343 1.462,6.13 -1.022,6.826 -3.78,1.062 -8.206,1.062 -11.54,-2.311 -1.13,-1.14 -2.082,-2.417 -2.584,-3.893 -2.679,-7.865 -3.102,-15.83 -0.58,-23.818 1.572,-4.986 5.848,-8.087 11.145,-8.176 3.874,-0.065 7.749,-0.013 11.623,-0.013 z m 6.902,-11.12 C 58.574,9.994 57.551,8.605 55.44,8.547 c -2.309,-0.06 -3.502,1.336 -3.505,3.608 -0.002,2.106 1.145,3.455 3.241,3.516 2.303,0.067 3.418,-1.36 3.56,-3.774 z"
         id="path1373" />
      <path
         fill="#ffcf46"
         d="m 80.824,61.572 c -4.24,0 -8.482,-0.037 -12.722,0.03 -0.955,0.012 -2.557,-0.592 -2.607,1.041 -0.056,1.852 1.663,1.37 2.755,1.381 4.24,0.053 8.484,0.098 12.723,-0.02 2.178,-0.06 3.067,0.357 3.23,2.925 0.737,11.625 -4.308,12.63 -13.613,14.745 -5.338,1.213 -11.061,0.57 -16.325,-1.788 -4.353,-1.947 -7.024,-4.753 -6.687,-10.007 0.334,-5.186 0.39,-10.439 -0.009,-15.62 -0.48,-6.253 3.41,-10.852 10.975,-10.854 5.09,-10e-4 10.214,-0.389 15.26,0.075 7.215,0.662 12.872,-5.592 13.12,-12.864 0.01,-0.241 -0.052,-0.5 0.01,-0.724 0.636,-2.235 -1.626,-5.557 1.4,-6.686 4.573,-1.705 9.73,0.087 12.066,3.557 2.945,4.369 3.343,9.51 3.819,14.53 0.515,5.411 -1.003,10.505 -3.276,15.386 -1.544,3.31 -4.14,4.91 -7.757,4.915 -4.12,0.003 -8.239,0 -12.36,0 -0.002,-0.008 -0.002,-0.015 -0.002,-0.022 z m -1.104,10.8 c -0.453,-2.066 -1.385,-3.476 -3.785,-3.535 -2.496,-0.06 -3.14,1.807 -3.127,3.474 0.014,1.772 0.508,3.952 3.21,3.748 2.246,-0.172 3.341,-1.563 3.702,-3.687 z"
         id="path1375" />
    </g>
  </g>
</svg>
