<?xml version="1.0" encoding="UTF-8" standalone="no"?>
<svg
   width="37.373318mm"
   height="37.373375mm"
   viewBox="0 0 37.373318 37.373374"
   version="1.1"
   id="svg1120"
   xmlns="http://www.w3.org/2000/svg"
   xmlns:svg="http://www.w3.org/2000/svg">
  <defs
     id="defs1117" />
  <g
     id="g4028"
     transform="translate(-74.964274,-188.70408)">
    <title>PySpark</title>
    <circle
       style="fill:#cccccc;fill-opacity:0.2;stroke:#393939;stroke-width:0.265;stroke-miterlimit:4;stroke-dasharray:1.06, 0.53, 0.265, 0.53;stroke-dashoffset:0;stroke-opacity:1"
       id="path13481-9"
       class="circle-frame"
       cx="93.650925"
       cy="207.39072"
       r="18.554167" />
    <path
       fill="#e15919"
       d="m 90.946449,191.57445 c -0.539012,0.0152 -1.071371,0.27152 -1.516549,0.76564 -0.24468,0.27223 -0.45254,0.59626 -0.624764,0.91577 -0.448976,0.84094 -0.537351,1.79282 -0.703641,2.71525 l -0.915055,5.18106 c -0.0352,0.20335 -0.126381,0.28745 -0.308823,0.34565 l -6.715191,2.13324 c -0.489361,0.15987 -0.979916,0.36654 -1.412739,0.64139 -1.320325,0.83857 -1.515597,2.21829 -0.524278,3.42982 0.437573,0.53592 1.001527,0.91292 1.627243,1.18682 l 4.181673,1.86314 c 0.03493,0.019 0.07219,0.0313 0.109986,0.0385 l 0.882993,0.63713 c 0,0 -0.878953,9.72738 0.771105,10.40038 -0.01446,-0.003 -0.0974,-0.0195 -0.0974,-0.0195 0,0 0.167241,0.18078 0.618354,0.12757 0.3454,0.0641 0.29979,0.0537 0.0176,-0.003 0.613605,-0.0794 1.74294,-0.59317 3.700626,-2.56179 a 11.259136,11.259136 0 0 0 0.421897,-0.39814 l 4.228465,-4.56508 0.988936,0.34802 c 0.0356,0.0492 0.0872,0.0808 0.169617,0.10523 l 4.709016,1.43269 c 0.64354,0.1986 1.28018,0.34399 1.96624,0.24373 1.22483,-0.17935 2.12635,-1.18776 2.11424,-2.42115 -0.004,-0.54163 -0.1948,-1.03075 -0.44423,-1.5023 l -3.11862,-5.91463 c -0.0993,-0.18696 -0.0962,-0.30787 0.0466,-0.47511 l 5.23903,-6.15793 c 0.33922,-0.40455 0.64543,-0.83832 0.82312,-1.34099 0.39031,-1.10938 -0.1145,-1.99118 -1.26616,-2.20665 -0.52952,-0.0945 -1.05166,-0.0446 -1.56786,0.0915 l -7.505992,1.99428 c -0.220927,0.0594 -0.330197,0.0178 -0.450167,-0.1834 l -3.06444,-5.09174 c -0.231617,-0.38365 -0.508369,-0.75875 -0.825981,-1.07541 -0.47012,-0.47012 -1.015785,-0.69556 -1.554796,-0.68059 z m 0.224254,4.68838 c 0.121155,0.085 0.182442,0.1727 0.239931,0.26724 l 3.297257,5.49465 c 0.09075,0.14917 0.172229,0.20191 0.352759,0.15393 l 5.80652,-1.54339 1.39801,-0.36584 c -0.0207,0.11712 -0.0717,0.18767 -0.12756,0.25371 l -4.789082,5.62339 c -0.13541,0.16343 -0.148,0.27794 -0.0461,0.46941 l 3.027132,5.73932 0.13897,0.29385 -0.004,0.004 -5.39887,-1.48804 -0.002,-0.004 -1.021011,-0.28625 -6.055976,6.71233 1.107715,-8.82515 -0.993931,-0.43234 0.0018,-0.002 -5.623862,-2.23301 c 0.107849,-0.0981 0.204296,-0.13897 0.305249,-0.17033 l 6.836113,-2.1608 c 0.160588,-0.0499 0.252043,-0.11164 0.267252,-0.29504 l 0.09578,-0.55937 0.920524,-5.18035 0.266067,-1.46666 z"
       id="path13076"
       style="stroke-width:0.237554" />
  </g>
</svg>
