<?xml version="1.0" encoding="UTF-8" standalone="no"?>
<svg
   width="37.373318mm"
   height="37.373375mm"
   viewBox="0 0 37.373318 37.373374"
   version="1.1"
   id="svg1120"
   xmlns="http://www.w3.org/2000/svg"
   xmlns:svg="http://www.w3.org/2000/svg">
  <defs
     id="defs1117" />
  <g
     id="g3986"
     transform="translate(-160.30256,-188.62435)">
    <title>Google Cloud Platform</title>
    <circle
       style="fill:#cccccc;fill-opacity:0.2;stroke:#393939;stroke-width:0.265;stroke-miterlimit:4;stroke-dasharray:1.06, 0.53, 0.265, 0.53;stroke-dashoffset:0;stroke-opacity:1"
       id="path13481-18"
       class="circle-frame"
       cx="178.98921"
       cy="207.31099"
       r="18.554167" />
    <g
       id="g9804"
       transform="matrix(0.26458333,0,0,0.26458333,162.0989,189.43129)">
      <path
         fill="#ea4535"
         d="M 80.6,40.3 H 81 l -0.2,-0.2 14,-14 V 25.8 C 83,15.4 66.7,11.8 51.6,16.3 36.5,20.8 24.9,32.8 20.7,48 c 0.2,-0.1 0.5,-0.2 0.8,-0.2 5.2,-3.4 11.4,-5.4 17.9,-5.4 2.2,0 4.3,0.2 6.4,0.6 0.1,-0.1 0.2,-0.1 0.3,-0.1 9,-9.9 24.2,-11.1 34.6,-2.6 z"
         id="path9786" />
      <path
         fill="#557ebf"
         d="M 108.1,47.8 C 105.8,39.3 101,31.6 94.3,25.7 L 80,39.9 c 6,4.9 9.5,12.3 9.3,20 v 2.5 c 16.9,0 16.9,25.2 0,25.2 H 63.9 v 20 h -0.1 l 0.1,0.2 h 25.4 c 14.6,0.1 27.5,-9.3 31.8,-23.1 4.3,-13.8 -1,-28.8 -13,-36.9 z"
         id="path9788" />
      <path
         fill="#36a852"
         d="M 39,107.9 H 65.3 V 87.7 H 39 c -1.9,0 -3.7,-0.4 -5.4,-1.1 l -15.2,14.6 v 0.2 c 6,4.3 13.2,6.6 20.7,6.6 z"
         id="path9790" />
      <path
         fill="#f9bc15"
         d="M 40.2,41.9 C 25.3,42 12.1,51.2 7.3,64.7 2.5,78.3 7.3,93.2 19.1,102 L 34.7,87.1 c -8.6,-3.7 -10.6,-14.5 -4,-20.8 6.6,-6.4 17.8,-4.4 21.7,3.8 L 68,55.2 C 61.4,46.9 51.1,42 40.2,42.1 Z"
         id="path9792" />
    </g>
  </g>
</svg>
