<?xml version="1.0" encoding="UTF-8" standalone="no"?>
<svg
   width="37.373318mm"
   height="37.373375mm"
   viewBox="0 0 37.373318 37.373374"
   version="1.1"
   id="svg1120"
   xmlns="http://www.w3.org/2000/svg"
   xmlns:svg="http://www.w3.org/2000/svg">
  <defs
     id="defs1117" />
  <g
     id="g3126"
     transform="translate(-139.16636,-77.323416)">
    <title>Numpy</title>
    <circle
       style="fill:#cccccc;fill-opacity:0.2;stroke:#393939;stroke-width:0.265;stroke-miterlimit:4;stroke-dasharray:1.06, 0.53, 0.265, 0.53;stroke-dashoffset:0;stroke-opacity:1"
       id="path13481-97"
       class="circle-frame"
       cx="157.85301"
       cy="96.010056"
       r="18.554167" />
    <g
       id="g7327"
       transform="matrix(0.2408164,0,0,0.2408164,142.10897,80.35873)">
      <path
         fill="#4dabcf"
         d="M 55.012,26.006 33.632,15.217 10.154,26.93 32.123,37.957 Z m 9.808,4.951 22.421,11.323 -23.259,11.675 -22,-11.043 z M 94.768,15.376 117.805,26.928 97.2,37.272 74.735,25.938 Z M 84.853,10.4 64.113,0 43.598,10.24 64.97,21.014 Z M 68.64,99.702 V 128 L 93.762,115.463 93.739,87.153 Z M 93.727,77.27 93.699,49.258 68.639,61.716 V 89.74 Z m 30.158,-5.246 v 28.41 l -21.43,10.69 -0.017,-28.279 z m 0,-9.935 V 34.25 l -21.47,10.673 0.016,28.068 z"
         id="path7315" />
      <path
         fill="#4c75cf"
         d="M 59.77,61.716 42.852,53.204 V 89.97 c 0,0 -20.7,-44.033 -22.612,-47.99 -0.246,-0.513 -1.263,-1.07 -1.522,-1.209 -3.731,-1.947 -14.603,-7.45 -14.603,-7.45 v 64.977 l 15.04,8.063 V 72.382 c 0,0 20.478,39.346 20.689,39.78 0.214,0.429 2.257,4.57 4.459,6.028 2.92,1.939 15.458,9.477 15.458,9.477 z"
         id="path7317" />
    </g>
  </g>
</svg>
