<?xml version="1.0" encoding="UTF-8" standalone="no"?>
<svg
   width="37.373318mm"
   height="37.373375mm"
   viewBox="0 0 37.373318 37.373374"
   version="1.1"
   id="svg1120"
   xmlns="http://www.w3.org/2000/svg"
   xmlns:svg="http://www.w3.org/2000/svg">
  <defs
     id="defs1117" />
  <g
     id="g4063"
     transform="translate(-55.768145,-76.996649)">
    <title>HTML</title>
    <circle
       style="fill:#cccccc;fill-opacity:0.2;stroke:#393939;stroke-width:0.265;stroke-miterlimit:4;stroke-dasharray:1.06, 0.53, 0.265, 0.53;stroke-dashoffset:0;stroke-opacity:1"
       id="path13481-2"
       class="circle-frame"
       cx="74.454796"
       cy="95.683289"
       r="18.554167" />
    <g
       id="g1885"
       transform="matrix(0.22420594,0,0,0.22420594,60.138924,82.693225)">
      <path
         fill="#e44d26"
         d="M 19.037,113.876 9.032,1.661 h 109.936 l -10.016,112.198 -45.019,12.48 z"
         id="path1867" />
      <path
         fill="#f16529"
         d="m 64,116.8 36.378,-10.086 8.559,-95.878 H 64 Z"
         id="path1869" />
      <path
         fill="#ebebeb"
         d="M 64,52.455 H 45.788 L 44.53,38.361 H 64 V 24.599 H 29.489 l 0.33,3.692 3.382,37.927 H 64 Z M 64,88.198 63.939,88.215 48.612,84.075 47.633,73.1 H 33.816 l 1.928,21.609 28.193,7.826 0.063,-0.017 z"
         id="path1871" />
      <path
         fill="#ffffff"
         d="m 63.952,52.455 v 13.763 h 16.947 l -1.597,17.849 -15.35,4.143 v 14.319 l 28.215,-7.82 0.207,-2.325 3.234,-36.233 0.335,-3.696 h -3.708 z m 0,-27.856 v 13.762 h 33.244 l 0.276,-3.092 0.628,-6.978 0.329,-3.692 z"
         id="path1873" />
    </g>
  </g>
</svg>
