<?xml version="1.0" encoding="UTF-8" standalone="no"?>
<svg
   width="37.373318mm"
   height="37.373375mm"
   viewBox="0 0 37.373318 37.373374"
   version="1.1"
   id="svg1120"
   xmlns="http://www.w3.org/2000/svg"
   xmlns:svg="http://www.w3.org/2000/svg">
  <defs
     id="defs1117" />
  <g
     id="g3629"
     transform="translate(-139.15618,-151.93297)">
    <title>PyTorch</title>
    <circle
       style="fill:#cccccc;fill-opacity:0.2;stroke:#393939;stroke-width:0.265;stroke-miterlimit:4;stroke-dasharray:1.06, 0.53, 0.265, 0.53;stroke-dashoffset:0;stroke-opacity:1"
       id="path13481-20"
       class="circle-frame"
       cx="157.84283"
       cy="170.61961"
       r="18.554167" />
    <g
       id="g1497"
       transform="matrix(0.26458333,0,0,0.26458333,140.80644,153.12654)">
      <path
         fill="#ee4c2c"
         d="m 100.1,38.3 -9.2,9.2 c 15.1,15.1 15.1,39.4 0,54.3 -15.1,15.1 -39.4,15.1 -54.3,0 -15.1,-15.1 -15.1,-39.4 0,-54.3 l 24,-24 3.4,-3.4 V 2 L 27.8,38.2 c -20.1,20.1 -20.1,52.6 0,72.8 20.1,20.2 52.6,20.1 72.4,0 20.1,-20.2 20.1,-52.5 -0.1,-72.7 z"
         id="path1485" />
      <circle
         fill="#ee4c2c"
         transform="matrix(0.01851633,-0.99979855,0.99979855,0.01851633,51.156378,110.90857)"
         cx="82.099998"
         cy="29.4"
         r="6.6999998"
         id="circle1487" />
    </g>
  </g>
</svg>
