<?xml version="1.0" encoding="UTF-8" standalone="no"?>
<svg
   width="37.373318mm"
   height="37.373375mm"
   viewBox="0 0 37.373318 37.373374"
   version="1.1"
   id="svg1120"
   xmlns="http://www.w3.org/2000/svg"
   xmlns:svg="http://www.w3.org/2000/svg">
  <defs
     id="defs1117" />
  <g
     id="g4249"
     transform="translate(-119.2467,-40.073198)">
    <title>Selenium</title>
    <circle
       style="fill:#cccccc;fill-opacity:0.2;stroke:#393939;stroke-width:0.265;stroke-miterlimit:4;stroke-dasharray:1.06, 0.53, 0.265, 0.53;stroke-dashoffset:0;stroke-opacity:1"
       id="path13481-70"
       class="circle-frame"
       cx="137.93335"
       cy="58.759838"
       r="18.554167" />
    <g
       id="g8037"
       transform="matrix(0.20691745,0,0,0.20691745,124.68087,45.579167)">
      <path
         fill="#cf0a2c"
         d="m 83.1,80.5 c -4.7,-0.1 -8.8,3.4 -9.3,8.1 0,0.2 0.1,0.3 0.3,0.3 h 18 c 0.2,0 0.3,-0.1 0.3,-0.3 -0.4,-4.8 -4.5,-8.4 -9.3,-8.1 z"
         id="path8025" />
      <path
         fill="#cf0a2c"
         d="m 121.7,19.9 -38.4,43 c -0.4,0.5 -1.2,0.5 -1.7,0.1 L 81.5,62.9 62.1,42.8 C 61.7,42.4 61.7,41.8 62,41.3 L 68.5,33 c 0.4,-0.5 1.1,-0.7 1.6,-0.3 0.1,0.1 0.2,0.1 0.2,0.2 l 11,12.1 c 0.4,0.5 1.2,0.5 1.7,0.1 L 83.1,45 113.8,3.3 C 114.1,2.9 114,2.4 113.6,2.1 113.5,2 113.3,2 113.1,1.9 H 5.7 C 5.2,2 4.8,2.4 4.8,2.9 v 122.2 c 0,0.5 0.4,0.9 0.9,0.9 h 116.6 c 0.5,0 0.9,-0.4 0.9,-0.9 V 20.5 c 0,-0.5 -0.4,-0.8 -0.8,-0.8 -0.3,-0.1 -0.5,0 -0.7,0.2 z m -83.8,92.5 c -7.7,0.3 -15.2,-2.3 -20.9,-7.4 -0.4,-0.4 -0.5,-1 -0.1,-1.5 l 4.5,-6.4 c 0.4,-0.5 1.1,-0.6 1.6,-0.3 l 0.1,0.1 c 4.2,3.9 9.6,6 15.3,6 6,0 8.9,-2.8 8.9,-5.7 0,-9.1 -29.5,-2.8 -29.5,-22.1 0,-8.5 7.4,-15.6 19.4,-15.6 6.9,-0.2 13.7,2.1 19.1,6.5 0.4,0.4 0.5,1.1 0.1,1.5 l -4.7,6.2 c -0.4,0.5 -1.1,0.6 -1.6,0.2 -4,-3.2 -8.9,-4.9 -14,-4.8 -4.7,0 -7.3,2.1 -7.3,5.1 0,8.1 29.4,2.7 29.4,21.8 0.1,9.3 -6.6,16.4 -20.3,16.4 z m 64.3,-17.8 c 0,0.6 -0.5,1 -1,1 H 74.3 c -0.2,0 -0.3,0.1 -0.3,0.3 0.9,5.2 5.6,8.8 10.9,8.5 3.4,-0.1 6.6,-1.1 9.3,-3.1 0.4,-0.3 1.1,-0.3 1.4,0.2 l 0.1,0.1 3.3,4.8 c 0.3,0.4 0.2,1 -0.2,1.4 -4.3,3.2 -9.6,4.8 -14.9,4.6 -11.6,0 -20.3,-7.8 -20.3,-20 -0.3,-10.7 8.1,-19.6 18.8,-19.9 h 0.9 c 11.3,0 19.1,8.5 19.1,20.9 z"
         id="path8027" />
    </g>
  </g>
</svg>
