<?xml version="1.0" encoding="UTF-8" standalone="no"?>
<svg
   width="37.373318mm"
   height="37.373375mm"
   viewBox="0 0 37.373318 37.373374"
   version="1.1"
   id="svg1120"
   xmlns="http://www.w3.org/2000/svg"
   xmlns:svg="http://www.w3.org/2000/svg">
  <defs
     id="defs1117" />
  <g
     id="g4080"
     transform="translate(-76.676173,-40.015383)">
    <title>CSS</title>
    <circle
       style="fill:#cccccc;fill-opacity:0.2;stroke:#393939;stroke-width:0.265;stroke-miterlimit:4;stroke-dasharray:1.06, 0.53, 0.265, 0.53;stroke-dashoffset:0;stroke-opacity:1"
       id="path13481-35"
       class="circle-frame"
       cx="95.362823"
       cy="58.702023"
       r="18.554167" />
    <g
       id="g2027"
       transform="matrix(0.22842518,0,0,0.22842518,80.76979,45.934156)">
      <path
         fill="#1572b6"
         d="M 18.814,114.123 8.76,1.352 h 110.48 l -10.064,112.754 -45.243,12.543 z"
         id="path2003" />
      <path
         fill="#33a9dc"
         d="m 64.001,117.062 36.559,-10.136 8.601,-96.354 h -45.16 z"
         id="path2005" />
      <path
         fill="#ffffff"
         d="M 64.001,51.429 H 82.303 L 83.567,37.266 H 64.001 V 23.435 h 34.682 l -0.332,3.711 -3.4,38.114 h -30.95 z"
         id="path2007" />
      <path
         fill="#ebebeb"
         d="M 64.083,87.349 64.022,87.367 48.619,83.208 47.634,72.177 H 33.752 l 1.937,21.717 28.331,7.863 0.063,-0.018 z"
         id="path2009" />
      <path
         fill="#ffffff"
         d="m 81.127,64.675 -1.666,18.522 -15.426,4.164 v 14.39 l 28.354,-7.858 0.208,-2.337 2.406,-26.881 z"
         id="path2011" />
      <path
         fill="#ebebeb"
         d="M 64.048,23.435 V 37.266 H 30.64 l -0.277,-3.108 -0.63,-7.012 -0.331,-3.711 z M 64.001,51.431 V 65.262 H 48.792 l -0.277,-3.108 -0.631,-7.012 -0.33,-3.711 z"
         id="path2013" />
    </g>
  </g>
</svg>
